<?xml version="1.0" encoding="UTF-8"?>
<svg xmlns="http://www.w3.org/2000/svg" xmlns:xlink="http://www.w3.org/1999/xlink" width="120pt" height="120pt" viewBox="0 0 120 120" version="1.1">
<g id="surface1">
<path style=" stroke:none;fill-rule:evenodd;fill:rgb(100%,100%,100%);fill-opacity:1;" d="M 83.15625 24.878906 L 83.15625 44.6875 L 64.269531 67.03125 L 64.039062 67.03125 L 64.039062 44.917969 L 60.582031 44.917969 L 60.582031 71.640625 L 40.542969 95.363281 L 40.542969 44.917969 L 20.730469 44.917969 L 20.730469 44.6875 L 37.546875 24.648438 Z M 83.15625 24.878906 "/>
<path style=" stroke:none;fill-rule:evenodd;fill:rgb(85.490196%,14.509804%,10.980392%);fill-opacity:1;" d="M 82.925781 24.878906 L 99.511719 25.109375 L 98.128906 26.492188 L 83.386719 44.457031 L 82.925781 44.226562 Z M 82.925781 24.878906 "/>
<path style=" stroke:none;fill-rule:evenodd;fill:rgb(30.980392%,62.745098%,92.54902%);fill-opacity:1;" d="M 11.289062 0 L 85.230469 0 C 95.113281 0 109.210938 -1.652344 114.945312 2.765625 C 121.039062 7.453125 120.011719 17.484375 120.011719 28.332031 L 120.011719 90.757812 C 120.011719 101.808594 121.171875 112.464844 114.945312 117.25 C 109.460938 121.460938 96.59375 120.011719 87.074219 120.011719 L 27.871094 120.011719 C 14.457031 120.011719 4.421875 120.890625 0.691406 111.257812 C -1.648438 105.21875 0 90.230469 0 82.464844 L 0 30.867188 C 0 23.609375 -1.300781 12.933594 1.152344 7.601562 C 3.1875 3.171875 6.835938 2.132812 11.289062 0 Z M 60.351562 44.6875 L 64.269531 44.917969 C 64.191406 52.289062 64.113281 59.660156 64.039062 67.03125 L 99.742188 24.878906 L 37.316406 24.878906 L 20.730469 44.6875 L 40.773438 44.917969 L 40.773438 94.90625 L 41.234375 94.675781 L 60.351562 71.640625 Z M 60.351562 44.6875 "/>
</g>
</svg>
